<svg xmlns="http://www.w3.org/2000/svg" width="512" height="512" viewBox="0 0 512 512" version="1.1">
	<path d="M 148.634 145.586 C 130.515 149.972, 114.508 165.699, 108.518 185 C 107.398 188.611, 106.633 195.481, 106.292 205 C 105.797 218.813, 105.876 219.630, 107.959 222.250 L 110.145 225 142.381 225 C 168.625 225, 174.979 224.736, 176.559 223.582 C 178.376 222.255, 178.535 220.380, 179.052 194.332 L 179.604 166.500 182.919 156.777 C 184.743 151.429, 185.971 146.367, 185.649 145.527 C 185.157 144.245, 182.614 144.013, 169.781 144.083 C 160.287 144.135, 152.279 144.704, 148.634 145.586 M 209.243 146.449 C 207.643 147.795, 204.920 151.550, 203.192 154.792 C 197.886 164.746, 197.031 170.668, 197.015 197.595 C 197.001 219.679, 197.153 221.828, 198.829 223.345 C 200.484 224.843, 205.924 225, 256.257 225 C 317.912 225, 314.270 225.409, 315.598 218.330 C 316.837 211.724, 315.310 173.041, 313.552 166.500 C 311.230 157.863, 307.443 150.596, 303.425 147.068 L 299.930 144 256.042 144 L 212.153 144 209.243 146.449 M 326.429 145.325 C 326.149 146.053, 327.387 150.891, 329.179 156.075 L 332.437 165.500 332.969 193.148 C 333.456 218.503, 333.658 220.969, 335.405 222.898 C 337.267 224.953, 338.048 225, 370.132 225 L 402.954 225 404.612 222.470 C 406.035 220.298, 406.193 217.852, 405.729 205.220 C 405.130 188.897, 403.888 183.481, 398.284 172.758 C 391.886 160.516, 377.347 149.149, 363.458 145.531 C 355.634 143.493, 327.193 143.334, 326.429 145.325 M 108.861 244.911 L 106.500 246.822 106.220 292.521 C 105.917 342.086, 106.216 345.630, 111.394 353.832 C 114.967 359.493, 121.326 364.514, 127.300 366.393 C 131.628 367.754, 136.346 367.993, 154.489 367.770 L 176.442 367.500 177.719 365 C 178.721 363.040, 178.943 350.009, 178.748 304.661 L 178.500 246.822 176.139 244.911 C 173.927 243.121, 171.804 243, 142.500 243 C 113.197 243, 111.072 243.121, 108.861 244.911 M 199 245 C 197.045 246.955, 197 248.333, 197 305.845 C 197 361.583, 197.097 364.777, 198.829 366.345 C 200.484 367.843, 205.924 368, 256.257 368 C 317.565 368, 314.299 368.346, 315.509 361.718 C 315.832 359.948, 315.962 333.372, 315.798 302.661 L 315.500 246.822 313.139 244.911 C 309.625 242.067, 293.389 242.119, 289.743 244.987 C 287.360 246.862, 287.194 247.612, 286.817 258.237 C 286.499 267.190, 285.953 270.526, 284.159 274.500 C 281.321 280.786, 275.950 286.402, 269.500 289.830 C 265.191 292.119, 263.326 292.481, 256 292.445 C 248.823 292.411, 246.722 291.997, 242.500 289.788 C 236.043 286.411, 230.664 280.781, 227.892 274.501 C 226.205 270.678, 225.546 266.746, 225.093 257.793 C 224.347 243.068, 224.355 243.076, 210.750 243.032 C 202.308 243.004, 200.732 243.268, 199 245 M 335.861 244.912 L 333.500 246.823 333.500 305.307 C 333.500 361.414, 333.577 363.876, 335.405 365.895 C 337.230 367.912, 338.220 368, 358.977 368 C 376.170 368, 381.609 367.671, 385.316 366.408 C 391.693 364.235, 399.284 357.159, 402.700 350.203 L 405.500 344.500 405.795 296.249 L 406.090 247.999 403.590 245.499 L 401.091 243 369.656 243 C 340.196 243, 338.073 243.120, 335.861 244.912 M 251.500 250.373 C 244.428 253.608, 241.510 260.499, 244.342 267.276 C 248.495 277.215, 263.442 277.366, 267.560 267.510 C 269.496 262.878, 269.368 260.116, 267.044 256.304 C 263.429 250.376, 256.921 247.893, 251.500 250.373" stroke="none" fill="#000000" fill-rule="evenodd"/>
</svg>